<svg width="21" height="19" viewBox="0 0 21 19" fill="none" xmlns="http://www.w3.org/2000/svg">
<path d="M0.478087 13.5137L7.38025 1.69728C8.25699 2.21345 12.678 4.66013 13.392 5.12546L6.48987 16.9425C5.73502 17.9398 -0.478236 15.027 0.478087 13.513V13.5137Z" fill="#FBBC04"/>
<path d="M20.3092 13.5134L13.4071 1.69776C12.4421 0.0919242 10.364 -0.491647 8.65703 0.456799C6.95009 1.40524 6.43035 3.44831 7.39528 5.12586L14.2974 16.943C15.2624 18.5481 17.3406 19.1316 19.0475 18.1832C20.6799 17.2347 21.2741 15.1192 20.3092 13.5148V13.5134Z" fill="#4285F4"/>
<path d="M3.46472 18.6399C5.37824 18.6399 6.92945 17.1272 6.92945 15.2612C6.92945 13.3952 5.37824 11.8826 3.46472 11.8826C1.55121 11.8826 0 13.3952 0 15.2612C0 17.1272 1.55121 18.6399 3.46472 18.6399Z" fill="#34A853"/>
</svg>
